<?xml version="1.0" encoding="UTF-8" standalone="no"?>
<!DOCTYPE svg PUBLIC "-//W3C//DTD SVG 1.1//EN" "http://www.w3.org/Graphics/SVG/1.1/DTD/svg11.dtd">
<svg width="100%" height="100%" viewBox="0 0 5357 5357" version="1.1" xmlns="http://www.w3.org/2000/svg" xmlns:xlink="http://www.w3.org/1999/xlink" xml:space="preserve" xmlns:serif="http://www.serif.com/" style="fill-rule:evenodd;clip-rule:evenodd;stroke-linejoin:round;stroke-miterlimit:2;">
    <g transform="matrix(5.33333,0,0,5.33333,0,0)">
        <g transform="matrix(1.51963,0,0,1.51963,-193.377,-379.725)">
            <path d="M266.059,620.479C264.41,620.479 262.829,621.134 261.663,622.3C260.497,623.466 259.843,625.047 259.843,626.696C259.843,651.944 259.843,746.67 259.843,771.919C259.843,775.352 257.059,778.135 253.626,778.135C235.636,778.135 183.664,778.135 165.673,778.135C162.24,778.135 159.457,775.352 159.457,771.919C159.457,743.312 159.457,624.509 159.457,595.902C159.457,594.253 160.112,592.672 161.278,591.506C162.443,590.34 164.025,589.685 165.673,589.685C175.363,589.685 193.96,589.685 203.65,589.685C205.299,589.685 206.88,589.03 208.046,587.864C209.212,586.699 209.867,585.117 209.867,583.469C209.867,566.595 209.867,520.075 209.867,503.201C209.867,499.768 212.65,496.984 216.083,496.984C229.967,496.984 263.364,496.984 277.248,496.984C280.681,496.984 283.465,494.201 283.465,490.768C283.465,472.851 283.465,421.245 283.465,403.328C283.465,399.895 286.248,397.111 289.681,397.111C303.565,397.111 336.962,397.111 350.846,397.111C354.279,397.111 357.063,399.895 357.063,403.328C357.063,410.415 357.063,421.933 357.063,429.02C357.063,432.454 359.846,435.237 363.279,435.237L418.98,435.237C422.414,435.237 425.197,438.02 425.197,441.453C425.197,462.569 425.197,531.399 425.197,552.515C425.197,555.948 427.98,558.732 431.413,558.732C441.64,558.732 461.895,558.732 472.122,558.732C475.555,558.732 478.339,555.948 478.339,552.515L478.339,470.46C478.339,467.027 481.122,464.244 484.555,464.244C498.439,464.244 531.836,464.244 545.72,464.244C549.153,464.244 551.937,461.46 551.937,458.027C551.937,440.89 551.937,393.109 551.937,375.972C551.937,372.539 554.72,369.755 558.153,369.755C580.483,369.755 656.493,369.755 678.823,369.755C680.471,369.755 682.053,370.41 683.219,371.576C684.384,372.742 685.039,374.323 685.039,375.972L685.039,418.98C685.039,420.629 685.694,422.21 686.86,423.376C688.026,424.542 689.607,425.197 691.256,425.197C704.683,425.197 736.262,425.197 749.689,425.197C751.338,425.197 752.919,425.852 754.085,427.018C755.251,428.184 755.906,429.765 755.906,431.413L755.906,771.919C755.906,773.567 755.251,775.149 754.085,776.314C752.919,777.48 751.338,778.135 749.689,778.135C726.305,778.135 643.774,778.135 620.39,778.135C618.741,778.135 617.16,777.48 615.994,776.314C614.828,775.149 614.173,773.567 614.173,771.919C614.173,738.469 614.173,580.161 614.173,546.711C614.173,545.062 613.518,543.481 612.352,542.315C611.187,541.149 609.605,540.494 607.957,540.494C596.033,540.494 570.077,540.494 558.153,540.494C556.505,540.494 554.923,541.149 553.757,542.315C552.592,543.481 551.937,545.062 551.937,546.711C551.937,563.848 551.937,611.629 551.937,628.766C551.937,632.199 549.153,634.983 545.72,634.983C531.836,634.983 498.439,634.983 484.555,634.983C482.906,634.983 481.325,635.637 480.159,636.803C478.994,637.969 478.339,639.55 478.339,641.199C478.339,660.827 478.339,721.337 478.339,740.965C478.339,742.614 477.684,744.195 476.518,745.361C475.352,746.527 473.771,747.182 472.122,747.182L384.169,747.182C380.736,747.182 377.953,744.398 377.953,740.965C377.953,717.645 377.953,635.513 377.953,612.192C377.953,610.544 377.298,608.962 376.132,607.797C374.966,606.631 373.385,605.976 371.736,605.976L357.815,605.976C356.167,605.976 354.585,605.321 353.42,604.155C352.254,602.989 351.599,601.408 351.599,599.759C351.599,583.994 351.599,542.588 351.599,526.823C351.599,525.174 350.944,523.593 349.778,522.427C348.612,521.261 347.031,520.606 345.382,520.606C332.421,520.606 302.642,520.606 289.681,520.606C286.248,520.606 283.465,523.39 283.465,526.823C283.465,544.74 283.465,596.346 283.465,614.263C283.465,615.911 282.81,617.492 281.644,618.658C280.478,619.824 278.897,620.479 277.248,620.479C273.795,620.479 269.512,620.479 266.059,620.479Z" style="fill:rgb(249,115,22);"/>
        </g>
    </g>
</svg>
